<svg width="161" height="12" viewBox="0 0 161 12" fill="none" xmlns="http://www.w3.org/2000/svg">
<path d="M7.126 1.704V1.032H0.42V1.704H3.388V11H4.144V1.704H7.126ZM15.1349 11V10.328H9.84288V6.31H14.3509V5.638H9.84288V1.704H15.1349V1.032H9.08688V11H15.1349ZM24.2161 11L21.8081 6.394C22.5081 6.27267 23.0634 5.98333 23.4741 5.526C23.8941 5.05933 24.1041 4.45267 24.1041 3.706C24.1041 3.27667 24.0294 2.894 23.8801 2.558C23.7401 2.222 23.5394 1.942 23.2781 1.718C23.0261 1.494 22.7227 1.326 22.3681 1.214C22.0227 1.09267 21.6494 1.032 21.2481 1.032H17.4541V11H18.2101V6.408H20.9541L23.3341 11H24.2161ZM23.3481 3.72C23.3481 4.06533 23.2921 4.364 23.1801 4.616C23.0774 4.868 22.9281 5.078 22.7321 5.246C22.5361 5.414 22.3027 5.54 22.0321 5.624C21.7614 5.69867 21.4674 5.736 21.1501 5.736H18.2101V1.704H21.1501C21.4674 1.704 21.7614 1.746 22.0321 1.83C22.3027 1.90467 22.5361 2.026 22.7321 2.194C22.9281 2.362 23.0774 2.572 23.1801 2.824C23.2921 3.076 23.3481 3.37467 23.3481 3.72ZM35.0272 11V1.032H34.2712L30.8832 8.718L27.4112 1.032H26.6552V11H27.4112V2.782L30.4912 9.6H31.2472L34.2712 2.782V11H35.0272ZM43.9643 8.326C43.9643 7.92467 43.8849 7.56067 43.7263 7.234C43.5769 6.898 43.3669 6.618 43.0963 6.394C42.9936 6.31 42.8863 6.23533 42.7743 6.17C42.6623 6.09533 42.5363 6.03467 42.3963 5.988C42.2656 5.932 42.1116 5.88533 41.9343 5.848C41.7569 5.81067 41.5516 5.77333 41.3183 5.736L40.2403 5.568C39.9603 5.52133 39.6849 5.44667 39.4143 5.344C39.1529 5.232 38.9336 5.10133 38.7563 4.952C38.4109 4.66267 38.2383 4.22867 38.2383 3.65C38.2383 3.01533 38.4389 2.516 38.8403 2.152C39.2509 1.77867 39.8203 1.592 40.5483 1.592C40.8469 1.592 41.1129 1.61533 41.3463 1.662C41.5796 1.70867 41.7896 1.774 41.9763 1.858C42.1629 1.93267 42.3356 2.026 42.4943 2.138C42.6529 2.25 42.8116 2.376 42.9703 2.516L43.4603 2.026C43.0309 1.65267 42.5969 1.382 42.1583 1.214C41.7289 1.03667 41.2063 0.947999 40.5903 0.947999C39.6289 0.947999 38.8729 1.19533 38.3223 1.69C37.7716 2.17533 37.4963 2.838 37.4963 3.678C37.4963 4.462 37.7576 5.07333 38.2803 5.512C38.7096 5.88533 39.3023 6.128 40.0583 6.24L41.2203 6.422C41.4256 6.45 41.5983 6.48267 41.7383 6.52C41.8783 6.548 41.9996 6.58067 42.1023 6.618C42.2143 6.65533 42.3123 6.702 42.3963 6.758C42.4803 6.814 42.5689 6.87933 42.6623 6.954C43.0263 7.28067 43.2083 7.74733 43.2083 8.354C43.2083 9.00733 42.9796 9.516 42.5223 9.88C42.0649 10.2347 41.4396 10.412 40.6463 10.412C40.3476 10.412 40.0723 10.3933 39.8203 10.356C39.5776 10.3187 39.3443 10.2533 39.1203 10.16C38.8963 10.0667 38.6769 9.94533 38.4623 9.796C38.2569 9.64667 38.0423 9.46 37.8183 9.236L37.2863 9.768C37.5103 9.992 37.7389 10.188 37.9723 10.356C38.2149 10.524 38.4669 10.664 38.7283 10.776C38.9989 10.8787 39.2836 10.9533 39.5823 11C39.8903 11.056 40.2309 11.084 40.6043 11.084C41.6496 11.084 42.4709 10.8367 43.0683 10.342C43.6656 9.84733 43.9643 9.17533 43.9643 8.326ZM56.5754 11L52.9074 1.032H52.2354L48.5674 11H49.3794L50.2474 8.578H54.8954L55.7634 11H56.5754ZM54.6574 7.906H50.4854L52.5714 2.04L54.6574 7.906ZM65.5853 11V1.032H64.8293V9.67L59.0753 1.032H58.3193V11H59.0753V2.334L64.8293 11H65.5853ZM75.4729 5.876C75.4729 5.54 75.4682 5.19467 75.4589 4.84C75.4589 4.476 75.4262 4.126 75.3609 3.79C75.3049 3.44467 75.2116 3.11333 75.0809 2.796C74.9502 2.47867 74.7589 2.194 74.5069 1.942C73.9002 1.33533 73.0696 1.032 72.0149 1.032H68.6689V11H72.0149C72.5376 11 73.0089 10.9253 73.4289 10.776C73.8489 10.6173 74.2082 10.3887 74.5069 10.09C74.7589 9.838 74.9502 9.53933 75.0809 9.194C75.2116 8.84867 75.3049 8.48933 75.3609 8.116C75.4262 7.73333 75.4589 7.35067 75.4589 6.968C75.4682 6.576 75.4729 6.212 75.4729 5.876ZM74.7169 5.876C74.7169 6.156 74.7122 6.46867 74.7029 6.814C74.7029 7.15 74.6796 7.49067 74.6329 7.836C74.5956 8.172 74.5256 8.494 74.4229 8.802C74.3202 9.10067 74.1709 9.35267 73.9749 9.558C73.6856 9.85667 73.3542 10.062 72.9809 10.174C72.6169 10.2767 72.2342 10.328 71.8329 10.328H69.4249V1.704H71.8329C72.2342 1.704 72.6169 1.76 72.9809 1.872C73.3542 1.97467 73.6856 2.17533 73.9749 2.474C74.1709 2.67933 74.3202 2.922 74.4229 3.202C74.5256 3.47267 74.5956 3.762 74.6329 4.07C74.6796 4.36867 74.7029 4.67667 74.7029 4.994C74.7122 5.302 74.7169 5.596 74.7169 5.876ZM88.1375 8.172H87.3955C87.2462 8.86267 86.9335 9.40867 86.4575 9.81C85.9909 10.2113 85.4215 10.412 84.7495 10.412C84.3949 10.412 84.0542 10.3467 83.7275 10.216C83.4009 10.0853 83.1115 9.894 82.8595 9.642C82.6822 9.46467 82.5422 9.278 82.4395 9.082C82.3369 8.87667 82.2575 8.63867 82.2015 8.368C82.1549 8.088 82.1222 7.76133 82.1035 7.388C82.0942 7.00533 82.0895 6.548 82.0895 6.016C82.0895 5.484 82.0942 5.03133 82.1035 4.658C82.1222 4.27533 82.1549 3.94867 82.2015 3.678C82.2575 3.398 82.3369 3.16 82.4395 2.964C82.5422 2.75867 82.6822 2.56733 82.8595 2.39C83.1115 2.138 83.4009 1.94667 83.7275 1.816C84.0542 1.68533 84.3949 1.62 84.7495 1.62C85.4215 1.62 85.9862 1.82067 86.4435 2.222C86.9102 2.62333 87.2182 3.16933 87.3675 3.86H88.1375C88.0535 3.412 87.9135 3.01067 87.7175 2.656C87.5215 2.292 87.2789 1.984 86.9895 1.732C86.7002 1.48 86.3642 1.28867 85.9815 1.158C85.6082 1.018 85.1975 0.947999 84.7495 0.947999C84.2735 0.947999 83.8209 1.03667 83.3915 1.214C82.9622 1.39133 82.5842 1.64333 82.2575 1.97C82.0335 2.194 81.8562 2.42733 81.7255 2.67C81.6042 2.91267 81.5109 3.188 81.4455 3.496C81.3895 3.804 81.3569 4.16333 81.3475 4.574C81.3382 4.97533 81.3335 5.456 81.3335 6.016C81.3335 6.576 81.3382 7.06133 81.3475 7.472C81.3569 7.88267 81.3895 8.242 81.4455 8.55C81.5109 8.858 81.6042 9.13333 81.7255 9.376C81.8562 9.60933 82.0335 9.838 82.2575 10.062C82.5842 10.3887 82.9622 10.6407 83.3915 10.818C83.8209 10.9953 84.2735 11.084 84.7495 11.084C85.1882 11.084 85.5942 11.0187 85.9675 10.888C86.3502 10.748 86.6862 10.552 86.9755 10.3C87.2742 10.048 87.5215 9.74467 87.7175 9.39C87.9135 9.026 88.0535 8.62 88.1375 8.172ZM97.1753 6.016C97.1753 5.456 97.1706 4.97533 97.1613 4.574C97.152 4.16333 97.1146 3.804 97.0493 3.496C96.9933 3.188 96.9 2.91267 96.7693 2.67C96.648 2.42733 96.4753 2.194 96.2513 1.97C95.9246 1.64333 95.5466 1.39133 95.1173 1.214C94.688 1.03667 94.2353 0.947999 93.7593 0.947999C93.2833 0.947999 92.8306 1.03667 92.4013 1.214C91.972 1.39133 91.594 1.64333 91.2673 1.97C91.0433 2.194 90.866 2.42733 90.7353 2.67C90.614 2.91267 90.5206 3.188 90.4553 3.496C90.3993 3.804 90.3666 4.16333 90.3573 4.574C90.348 4.97533 90.3433 5.456 90.3433 6.016C90.3433 6.576 90.348 7.06133 90.3573 7.472C90.3666 7.88267 90.3993 8.242 90.4553 8.55C90.5206 8.858 90.614 9.13333 90.7353 9.376C90.866 9.60933 91.0433 9.838 91.2673 10.062C91.594 10.3887 91.972 10.6407 92.4013 10.818C92.8306 10.9953 93.2833 11.084 93.7593 11.084C94.2353 11.084 94.688 10.9953 95.1173 10.818C95.5466 10.6407 95.9246 10.3887 96.2513 10.062C96.4753 9.838 96.648 9.60933 96.7693 9.376C96.9 9.13333 96.9933 8.858 97.0493 8.55C97.1146 8.242 97.152 7.88267 97.1613 7.472C97.1706 7.06133 97.1753 6.576 97.1753 6.016ZM96.4193 6.016C96.4193 6.548 96.41 7.00533 96.3913 7.388C96.382 7.76133 96.3493 8.088 96.2933 8.368C96.2466 8.63867 96.172 8.87667 96.0693 9.082C95.9666 9.278 95.8266 9.46467 95.6493 9.642C95.3973 9.894 95.108 10.0853 94.7813 10.216C94.4546 10.3467 94.114 10.412 93.7593 10.412C93.4046 10.412 93.064 10.3467 92.7373 10.216C92.4106 10.0853 92.1213 9.894 91.8693 9.642C91.692 9.46467 91.552 9.278 91.4493 9.082C91.3466 8.87667 91.2673 8.63867 91.2113 8.368C91.1646 8.088 91.132 7.76133 91.1133 7.388C91.104 7.00533 91.0993 6.548 91.0993 6.016C91.0993 5.484 91.104 5.03133 91.1133 4.658C91.132 4.27533 91.1646 3.94867 91.2113 3.678C91.2673 3.398 91.3466 3.16 91.4493 2.964C91.552 2.75867 91.692 2.56733 91.8693 2.39C92.1213 2.138 92.4106 1.94667 92.7373 1.816C93.064 1.68533 93.4046 1.62 93.7593 1.62C94.114 1.62 94.4546 1.68533 94.7813 1.816C95.108 1.94667 95.3973 2.138 95.6493 2.39C95.8266 2.56733 95.9666 2.75867 96.0693 2.964C96.172 3.16 96.2466 3.398 96.2933 3.678C96.3493 3.94867 96.382 4.27533 96.3913 4.658C96.41 5.03133 96.4193 5.484 96.4193 6.016ZM107.134 11V1.032H106.378V9.67L100.624 1.032H99.8681V11H100.624V2.334L106.378 11H107.134ZM117.022 5.876C117.022 5.54 117.017 5.19467 117.008 4.84C117.008 4.476 116.975 4.126 116.91 3.79C116.854 3.44467 116.76 3.11333 116.63 2.796C116.499 2.47867 116.308 2.194 116.056 1.942C115.449 1.33533 114.618 1.032 113.564 1.032H110.218V11H113.564C114.086 11 114.558 10.9253 114.978 10.776C115.398 10.6173 115.757 10.3887 116.056 10.09C116.308 9.838 116.499 9.53933 116.63 9.194C116.76 8.84867 116.854 8.48933 116.91 8.116C116.975 7.73333 117.008 7.35067 117.008 6.968C117.017 6.576 117.022 6.212 117.022 5.876ZM116.266 5.876C116.266 6.156 116.261 6.46867 116.252 6.814C116.252 7.15 116.228 7.49067 116.182 7.836C116.144 8.172 116.074 8.494 115.972 8.802C115.869 9.10067 115.72 9.35267 115.524 9.558C115.234 9.85667 114.903 10.062 114.53 10.174C114.166 10.2767 113.783 10.328 113.382 10.328H110.974V1.704H113.382C113.783 1.704 114.166 1.76 114.53 1.872C114.903 1.97467 115.234 2.17533 115.524 2.474C115.72 2.67933 115.869 2.922 115.972 3.202C116.074 3.47267 116.144 3.762 116.182 4.07C116.228 4.36867 116.252 4.67667 116.252 4.994C116.261 5.302 116.266 5.596 116.266 5.876ZM120.462 11V1.032H119.706V11H120.462ZM129.134 1.704V1.032H122.428V1.704H125.396V11H126.152V1.704H129.134ZM131.851 11V1.032H131.095V11H131.851ZM141.376 6.016C141.376 5.456 141.372 4.97533 141.362 4.574C141.353 4.16333 141.316 3.804 141.25 3.496C141.194 3.188 141.101 2.91267 140.97 2.67C140.849 2.42733 140.676 2.194 140.452 1.97C140.126 1.64333 139.748 1.39133 139.318 1.214C138.889 1.03667 138.436 0.947999 137.96 0.947999C137.484 0.947999 137.032 1.03667 136.602 1.214C136.173 1.39133 135.795 1.64333 135.468 1.97C135.244 2.194 135.067 2.42733 134.936 2.67C134.815 2.91267 134.722 3.188 134.656 3.496C134.6 3.804 134.568 4.16333 134.558 4.574C134.549 4.97533 134.544 5.456 134.544 6.016C134.544 6.576 134.549 7.06133 134.558 7.472C134.568 7.88267 134.6 8.242 134.656 8.55C134.722 8.858 134.815 9.13333 134.936 9.376C135.067 9.60933 135.244 9.838 135.468 10.062C135.795 10.3887 136.173 10.6407 136.602 10.818C137.032 10.9953 137.484 11.084 137.96 11.084C138.436 11.084 138.889 10.9953 139.318 10.818C139.748 10.6407 140.126 10.3887 140.452 10.062C140.676 9.838 140.849 9.60933 140.97 9.376C141.101 9.13333 141.194 8.858 141.25 8.55C141.316 8.242 141.353 7.88267 141.362 7.472C141.372 7.06133 141.376 6.576 141.376 6.016ZM140.62 6.016C140.62 6.548 140.611 7.00533 140.592 7.388C140.583 7.76133 140.55 8.088 140.494 8.368C140.448 8.63867 140.373 8.87667 140.27 9.082C140.168 9.278 140.028 9.46467 139.85 9.642C139.598 9.894 139.309 10.0853 138.982 10.216C138.656 10.3467 138.315 10.412 137.96 10.412C137.606 10.412 137.265 10.3467 136.938 10.216C136.612 10.0853 136.322 9.894 136.07 9.642C135.893 9.46467 135.753 9.278 135.65 9.082C135.548 8.87667 135.468 8.63867 135.412 8.368C135.366 8.088 135.333 7.76133 135.314 7.388C135.305 7.00533 135.3 6.548 135.3 6.016C135.3 5.484 135.305 5.03133 135.314 4.658C135.333 4.27533 135.366 3.94867 135.412 3.678C135.468 3.398 135.548 3.16 135.65 2.964C135.753 2.75867 135.893 2.56733 136.07 2.39C136.322 2.138 136.612 1.94667 136.938 1.816C137.265 1.68533 137.606 1.62 137.96 1.62C138.315 1.62 138.656 1.68533 138.982 1.816C139.309 1.94667 139.598 2.138 139.85 2.39C140.028 2.56733 140.168 2.75867 140.27 2.964C140.373 3.16 140.448 3.398 140.494 3.678C140.55 3.94867 140.583 4.27533 140.592 4.658C140.611 5.03133 140.62 5.484 140.62 6.016ZM151.335 11V1.032H150.579V9.67L144.825 1.032H144.069V11H144.825V2.334L150.579 11H151.335ZM160.271 8.326C160.271 7.92467 160.192 7.56067 160.033 7.234C159.884 6.898 159.674 6.618 159.403 6.394C159.3 6.31 159.193 6.23533 159.081 6.17C158.969 6.09533 158.843 6.03467 158.703 5.988C158.572 5.932 158.418 5.88533 158.241 5.848C158.064 5.81067 157.858 5.77333 157.625 5.736L156.547 5.568C156.267 5.52133 155.992 5.44667 155.721 5.344C155.46 5.232 155.24 5.10133 155.063 4.952C154.718 4.66267 154.545 4.22867 154.545 3.65C154.545 3.01533 154.746 2.516 155.147 2.152C155.558 1.77867 156.127 1.592 156.855 1.592C157.154 1.592 157.42 1.61533 157.653 1.662C157.886 1.70867 158.096 1.774 158.283 1.858C158.47 1.93267 158.642 2.026 158.801 2.138C158.96 2.25 159.118 2.376 159.277 2.516L159.767 2.026C159.338 1.65267 158.904 1.382 158.465 1.214C158.036 1.03667 157.513 0.947999 156.897 0.947999C155.936 0.947999 155.18 1.19533 154.629 1.69C154.078 2.17533 153.803 2.838 153.803 3.678C153.803 4.462 154.064 5.07333 154.587 5.512C155.016 5.88533 155.609 6.128 156.365 6.24L157.527 6.422C157.732 6.45 157.905 6.48267 158.045 6.52C158.185 6.548 158.306 6.58067 158.409 6.618C158.521 6.65533 158.619 6.702 158.703 6.758C158.787 6.814 158.876 6.87933 158.969 6.954C159.333 7.28067 159.515 7.74733 159.515 8.354C159.515 9.00733 159.286 9.516 158.829 9.88C158.372 10.2347 157.746 10.412 156.953 10.412C156.654 10.412 156.379 10.3933 156.127 10.356C155.884 10.3187 155.651 10.2533 155.427 10.16C155.203 10.0667 154.984 9.94533 154.769 9.796C154.564 9.64667 154.349 9.46 154.125 9.236L153.593 9.768C153.817 9.992 154.046 10.188 154.279 10.356C154.522 10.524 154.774 10.664 155.035 10.776C155.306 10.8787 155.59 10.9533 155.889 11C156.197 11.056 156.538 11.084 156.911 11.084C157.956 11.084 158.778 10.8367 159.375 10.342C159.972 9.84733 160.271 9.17533 160.271 8.326Z" fill="white"/>
</svg>
