<svg width="101" height="12" viewBox="0 0 101 12" fill="none" xmlns="http://www.w3.org/2000/svg">
<path d="M7.204 3.902C7.204 3.44467 7.12467 3.03867 6.966 2.684C6.81667 2.32933 6.60667 2.03067 6.336 1.788C6.07467 1.54533 5.75733 1.35867 5.384 1.228C5.02 1.09733 4.62333 1.032 4.194 1.032H0.54V11H1.296V6.772H4.194C4.62333 6.772 5.02 6.71133 5.384 6.59C5.75733 6.45933 6.07467 6.27267 6.336 6.03C6.60667 5.778 6.81667 5.47467 6.966 5.12C7.12467 4.76533 7.204 4.35933 7.204 3.902ZM6.448 3.902C6.448 4.27533 6.38733 4.602 6.266 4.882C6.154 5.15267 5.99533 5.38133 5.79 5.568C5.58467 5.74533 5.33733 5.88067 5.048 5.974C4.768 6.058 4.45533 6.1 4.11 6.1H1.296V1.704H4.11C4.45533 1.704 4.768 1.75067 5.048 1.844C5.33733 1.928 5.58467 2.06333 5.79 2.25C5.99533 2.42733 6.154 2.656 6.266 2.936C6.38733 3.20667 6.448 3.52867 6.448 3.902ZM16.134 11L13.726 6.394C14.426 6.27267 14.9814 5.98333 15.392 5.526C15.812 5.05933 16.022 4.45267 16.022 3.706C16.022 3.27667 15.9474 2.894 15.798 2.558C15.658 2.222 15.4574 1.942 15.196 1.718C14.944 1.494 14.6407 1.326 14.286 1.214C13.9407 1.09267 13.5674 1.032 13.166 1.032H9.37203V11H10.128V6.408H12.872L15.252 11H16.134ZM15.266 3.72C15.266 4.06533 15.21 4.364 15.098 4.616C14.9954 4.868 14.846 5.078 14.65 5.246C14.454 5.414 14.2207 5.54 13.95 5.624C13.6794 5.69867 13.3854 5.736 13.068 5.736H10.128V1.704H13.068C13.3854 1.704 13.6794 1.746 13.95 1.83C14.2207 1.90467 14.454 2.026 14.65 2.194C14.846 2.362 14.9954 2.572 15.098 2.824C15.21 3.076 15.266 3.37467 15.266 3.72ZM19.3292 11V1.032H18.5732V11H19.3292ZM28.211 1.032H27.413L24.613 9.67L21.813 1.032H21.015L24.291 11H24.935L28.211 1.032ZM36.0793 11L32.4113 1.032H31.7393L28.0713 11H28.8833L29.7513 8.578H34.3993L35.2673 11H36.0793ZM34.1613 7.906H29.9893L32.0753 2.04L34.1613 7.906ZM44.0985 8.172H43.3565C43.2072 8.86267 42.8945 9.40867 42.4185 9.81C41.9518 10.2113 41.3825 10.412 40.7105 10.412C40.3558 10.412 40.0152 10.3467 39.6885 10.216C39.3618 10.0853 39.0725 9.894 38.8205 9.642C38.6432 9.46467 38.5032 9.278 38.4005 9.082C38.2978 8.87667 38.2185 8.63867 38.1625 8.368C38.1158 8.088 38.0832 7.76133 38.0645 7.388C38.0552 7.00533 38.0505 6.548 38.0505 6.016C38.0505 5.484 38.0552 5.03133 38.0645 4.658C38.0832 4.27533 38.1158 3.94867 38.1625 3.678C38.2185 3.398 38.2978 3.16 38.4005 2.964C38.5032 2.75867 38.6432 2.56733 38.8205 2.39C39.0725 2.138 39.3618 1.94667 39.6885 1.816C40.0152 1.68533 40.3558 1.62 40.7105 1.62C41.3825 1.62 41.9472 1.82067 42.4045 2.222C42.8712 2.62333 43.1792 3.16933 43.3285 3.86H44.0985C44.0145 3.412 43.8745 3.01067 43.6785 2.656C43.4825 2.292 43.2398 1.984 42.9505 1.732C42.6612 1.48 42.3252 1.28867 41.9425 1.158C41.5692 1.018 41.1585 0.947999 40.7105 0.947999C40.2345 0.947999 39.7818 1.03667 39.3525 1.214C38.9232 1.39133 38.5452 1.64333 38.2185 1.97C37.9945 2.194 37.8172 2.42733 37.6865 2.67C37.5652 2.91267 37.4718 3.188 37.4065 3.496C37.3505 3.804 37.3178 4.16333 37.3085 4.574C37.2992 4.97533 37.2945 5.456 37.2945 6.016C37.2945 6.576 37.2992 7.06133 37.3085 7.472C37.3178 7.88267 37.3505 8.242 37.4065 8.55C37.4718 8.858 37.5652 9.13333 37.6865 9.376C37.8172 9.60933 37.9945 9.838 38.2185 10.062C38.5452 10.3887 38.9232 10.6407 39.3525 10.818C39.7818 10.9953 40.2345 11.084 40.7105 11.084C41.1492 11.084 41.5552 11.0187 41.9285 10.888C42.3112 10.748 42.6472 10.552 42.9365 10.3C43.2352 10.048 43.4825 9.74467 43.6785 9.39C43.8745 9.026 44.0145 8.62 44.0985 8.172ZM51.7955 1.032H50.9835L48.5055 6.072L45.9715 1.032H45.1595L48.0995 6.87V11H48.8555V6.87L51.7955 1.032ZM63.7099 3.902C63.7099 3.44467 63.6305 3.03867 63.4719 2.684C63.3225 2.32933 63.1125 2.03067 62.8419 1.788C62.5805 1.54533 62.2632 1.35867 61.8899 1.228C61.5259 1.09733 61.1292 1.032 60.6999 1.032H57.0459V11H57.8019V6.772H60.6999C61.1292 6.772 61.5259 6.71133 61.8899 6.59C62.2632 6.45933 62.5805 6.27267 62.8419 6.03C63.1125 5.778 63.3225 5.47467 63.4719 5.12C63.6305 4.76533 63.7099 4.35933 63.7099 3.902ZM62.9539 3.902C62.9539 4.27533 62.8932 4.602 62.7719 4.882C62.6599 5.15267 62.5012 5.38133 62.2959 5.568C62.0905 5.74533 61.8432 5.88067 61.5539 5.974C61.2739 6.058 60.9612 6.1 60.6159 6.1H57.8019V1.704H60.6159C60.9612 1.704 61.2739 1.75067 61.5539 1.844C61.8432 1.928 62.0905 2.06333 62.2959 2.25C62.5012 2.42733 62.6599 2.656 62.7719 2.936C62.8932 3.20667 62.9539 3.52867 62.9539 3.902ZM72.3179 6.016C72.3179 5.456 72.3132 4.97533 72.3039 4.574C72.2946 4.16333 72.2572 3.804 72.1919 3.496C72.1359 3.188 72.0426 2.91267 71.9119 2.67C71.7906 2.42733 71.6179 2.194 71.3939 1.97C71.0672 1.64333 70.6892 1.39133 70.2599 1.214C69.8306 1.03667 69.3779 0.947999 68.9019 0.947999C68.4259 0.947999 67.9732 1.03667 67.5439 1.214C67.1146 1.39133 66.7366 1.64333 66.4099 1.97C66.1859 2.194 66.0086 2.42733 65.8779 2.67C65.7566 2.91267 65.6632 3.188 65.5979 3.496C65.5419 3.804 65.5092 4.16333 65.4999 4.574C65.4906 4.97533 65.4859 5.456 65.4859 6.016C65.4859 6.576 65.4906 7.06133 65.4999 7.472C65.5092 7.88267 65.5419 8.242 65.5979 8.55C65.6632 8.858 65.7566 9.13333 65.8779 9.376C66.0086 9.60933 66.1859 9.838 66.4099 10.062C66.7366 10.3887 67.1146 10.6407 67.5439 10.818C67.9732 10.9953 68.4259 11.084 68.9019 11.084C69.3779 11.084 69.8306 10.9953 70.2599 10.818C70.6892 10.6407 71.0672 10.3887 71.3939 10.062C71.6179 9.838 71.7906 9.60933 71.9119 9.376C72.0426 9.13333 72.1359 8.858 72.1919 8.55C72.2572 8.242 72.2946 7.88267 72.3039 7.472C72.3132 7.06133 72.3179 6.576 72.3179 6.016ZM71.5619 6.016C71.5619 6.548 71.5526 7.00533 71.5339 7.388C71.5246 7.76133 71.4919 8.088 71.4359 8.368C71.3892 8.63867 71.3146 8.87667 71.2119 9.082C71.1092 9.278 70.9692 9.46467 70.7919 9.642C70.5399 9.894 70.2506 10.0853 69.9239 10.216C69.5972 10.3467 69.2566 10.412 68.9019 10.412C68.5472 10.412 68.2066 10.3467 67.8799 10.216C67.5532 10.0853 67.2639 9.894 67.0119 9.642C66.8346 9.46467 66.6946 9.278 66.5919 9.082C66.4892 8.87667 66.4099 8.63867 66.3539 8.368C66.3072 8.088 66.2746 7.76133 66.2559 7.388C66.2466 7.00533 66.2419 6.548 66.2419 6.016C66.2419 5.484 66.2466 5.03133 66.2559 4.658C66.2746 4.27533 66.3072 3.94867 66.3539 3.678C66.4099 3.398 66.4892 3.16 66.5919 2.964C66.6946 2.75867 66.8346 2.56733 67.0119 2.39C67.2639 2.138 67.5532 1.94667 67.8799 1.816C68.2066 1.68533 68.5472 1.62 68.9019 1.62C69.2566 1.62 69.5972 1.68533 69.9239 1.816C70.2506 1.94667 70.5399 2.138 70.7919 2.39C70.9692 2.56733 71.1092 2.75867 71.2119 2.964C71.3146 3.16 71.3892 3.398 71.4359 3.678C71.4919 3.94867 71.5246 4.27533 71.5339 4.658C71.5526 5.03133 71.5619 5.484 71.5619 6.016ZM81.0587 11V10.328H75.7667V1.032H75.0107V11H81.0587ZM83.7784 11V1.032H83.0224V11H83.7784ZM93.2762 8.172H92.5342C92.3849 8.86267 92.0722 9.40867 91.5962 9.81C91.1296 10.2113 90.5602 10.412 89.8882 10.412C89.5336 10.412 89.1929 10.3467 88.8662 10.216C88.5396 10.0853 88.2502 9.894 87.9982 9.642C87.8209 9.46467 87.6809 9.278 87.5782 9.082C87.4756 8.87667 87.3962 8.63867 87.3402 8.368C87.2936 8.088 87.2609 7.76133 87.2422 7.388C87.2329 7.00533 87.2282 6.548 87.2282 6.016C87.2282 5.484 87.2329 5.03133 87.2422 4.658C87.2609 4.27533 87.2936 3.94867 87.3402 3.678C87.3962 3.398 87.4756 3.16 87.5782 2.964C87.6809 2.75867 87.8209 2.56733 87.9982 2.39C88.2502 2.138 88.5396 1.94667 88.8662 1.816C89.1929 1.68533 89.5336 1.62 89.8882 1.62C90.5602 1.62 91.1249 1.82067 91.5822 2.222C92.0489 2.62333 92.3569 3.16933 92.5062 3.86H93.2762C93.1922 3.412 93.0522 3.01067 92.8562 2.656C92.6602 2.292 92.4176 1.984 92.1282 1.732C91.8389 1.48 91.5029 1.28867 91.1202 1.158C90.7469 1.018 90.3362 0.947999 89.8882 0.947999C89.4122 0.947999 88.9596 1.03667 88.5302 1.214C88.1009 1.39133 87.7229 1.64333 87.3962 1.97C87.1722 2.194 86.9949 2.42733 86.8642 2.67C86.7429 2.91267 86.6496 3.188 86.5842 3.496C86.5282 3.804 86.4956 4.16333 86.4862 4.574C86.4769 4.97533 86.4722 5.456 86.4722 6.016C86.4722 6.576 86.4769 7.06133 86.4862 7.472C86.4956 7.88267 86.5282 8.242 86.5842 8.55C86.6496 8.858 86.7429 9.13333 86.8642 9.376C86.9949 9.60933 87.1722 9.838 87.3962 10.062C87.7229 10.3887 88.1009 10.6407 88.5302 10.818C88.9596 10.9953 89.4122 11.084 89.8882 11.084C90.3269 11.084 90.7329 11.0187 91.1062 10.888C91.4889 10.748 91.8249 10.552 92.1142 10.3C92.4129 10.048 92.6602 9.74467 92.8562 9.39C93.0522 9.026 93.1922 8.62 93.2762 8.172ZM100.973 1.032H100.161L97.6833 6.072L95.1493 1.032H94.3373L97.2773 6.87V11H98.0333V6.87L100.973 1.032Z" fill="white"/>
</svg>
