<svg width="142" height="10" viewBox="0 0 142 10" fill="none" xmlns="http://www.w3.org/2000/svg">
<path d="M7.47852 8.38477C6.63997 8.87695 5.75586 9.1276 4.82617 9.13672C3.55924 9.13672 2.53385 8.71745 1.75 7.87891C1.0026 7.06771 0.628906 6.0651 0.628906 4.87109C0.628906 3.88672 0.897786 3.01628 1.43555 2.25977C2.21029 1.19336 3.32682 0.660156 4.78516 0.660156C4.97656 0.660156 5.16797 0.669271 5.35938 0.6875C6.21615 0.778646 6.9043 1.02474 7.42383 1.42578C7.42383 1.20703 7.43294 1.04297 7.45117 0.933594C7.49674 0.796875 7.62435 0.728516 7.83398 0.728516L7.875 3.28516H7.51953C7.08203 1.80859 6.19792 1.0612 4.86719 1.04297C4.39323 1.04297 3.96484 1.16146 3.58203 1.39844C2.63411 1.98177 2.16016 3.14388 2.16016 4.88477C2.16016 5.54102 2.22852 6.12891 2.36523 6.64844C2.72982 8.05208 3.54557 8.75391 4.8125 8.75391C6.1888 8.74479 7.10482 7.97917 7.56055 6.45703H7.91602V9.06836C7.80664 9.06836 7.72461 9.05924 7.66992 9.04102C7.54232 8.98633 7.47852 8.76758 7.47852 8.38477ZM15.4355 3.28516H15.1348L14.916 2.58789C14.916 2.56966 14.9115 2.55143 14.9023 2.5332C14.6198 1.61263 14.1276 1.15234 13.4258 1.15234H11.3613V4.57031H14.1504V4.9668H11.3613V8.64453H13.4258C13.5625 8.64453 13.6947 8.6263 13.8223 8.58984C14.3145 8.45312 14.679 7.99284 14.916 7.20898L15.1348 6.51172H15.4355L15.3672 9H8.95508V8.64453H10.0488V1.15234H8.95508V0.796875H15.3672L15.4355 3.28516ZM22.3262 1.15234V0.796875H25.1152V1.15234H24.0215V8.93164L23.3652 9.06836L18.0059 2.4375V8.64453H18.8125C18.8581 8.64453 18.9036 8.64909 18.9492 8.6582C19.0951 8.68555 19.168 8.79948 19.168 9H16.3652V8.64453H17.459V1.15234H16.3652V0.796875H18.3477L23.4746 7.12695V1.15234H22.3262ZM32.7168 8.38477C31.8783 8.87695 30.9941 9.1276 30.0645 9.13672C28.7975 9.13672 27.7721 8.71745 26.9883 7.87891C26.2409 7.06771 25.8672 6.0651 25.8672 4.87109C25.8672 3.88672 26.1361 3.01628 26.6738 2.25977C27.4486 1.19336 28.5651 0.660156 30.0234 0.660156C30.2148 0.660156 30.4062 0.669271 30.5977 0.6875C31.4544 0.778646 32.1426 1.02474 32.6621 1.42578C32.6621 1.20703 32.6712 1.04297 32.6895 0.933594C32.735 0.796875 32.8626 0.728516 33.0723 0.728516L33.1133 3.28516H32.7578C32.3203 1.80859 31.4362 1.0612 30.1055 1.04297C29.6315 1.04297 29.2031 1.16146 28.8203 1.39844C27.8724 1.98177 27.3984 3.14388 27.3984 4.88477C27.3984 5.54102 27.4668 6.12891 27.6035 6.64844C27.9681 8.05208 28.7839 8.75391 30.0508 8.75391C31.4271 8.74479 32.3431 7.97917 32.7988 6.45703H33.1543V9.06836C33.0449 9.06836 32.9629 9.05924 32.9082 9.04102C32.7806 8.98633 32.7168 8.76758 32.7168 8.38477ZM40.6738 3.28516H40.373L40.1543 2.58789C40.1543 2.56966 40.1497 2.55143 40.1406 2.5332C39.8581 1.61263 39.3659 1.15234 38.6641 1.15234H36.5996V4.57031H39.3887V4.9668H36.5996V8.64453H38.6641C38.8008 8.64453 38.9329 8.6263 39.0605 8.58984C39.5527 8.45312 39.9173 7.99284 40.1543 7.20898L40.373 6.51172H40.6738L40.6055 9H34.1934V8.64453H35.2871V1.15234H34.1934V0.796875H40.6055L40.6738 3.28516ZM47.9609 9H41.8359V8.64453H42.9297V1.15234H41.8359V0.796875H45.4043V1.15234H44.2422V8.64453H46.0332C46.1608 8.64453 46.2839 8.63086 46.4023 8.60352C46.9036 8.47591 47.2591 8.01107 47.4688 7.20898L47.7285 6.22461H48.0293L47.9609 9ZM54.7559 9H48.6309V8.64453H49.7246V1.15234H48.6309V0.796875H52.1992V1.15234H51.0371V8.64453H52.8281C52.9557 8.64453 53.0788 8.63086 53.1973 8.60352C53.6986 8.47591 54.054 8.01107 54.2637 7.20898L54.5234 6.22461H54.8242L54.7559 9ZM63.4102 9H60.3066V8.64453H61.2227L60.1973 5.99219H57.3672L56.3418 8.64453H57.0391C57.0846 8.64453 57.1302 8.64909 57.1758 8.6582C57.3125 8.67643 57.3809 8.79036 57.3809 9H54.9336V8.64453H55.7949L58.8438 0.796875H59.459L62.6035 8.64453H63.0547C63.1003 8.64453 63.1458 8.64909 63.1914 8.6582C63.3372 8.67643 63.4102 8.79036 63.4102 9ZM60.0332 5.5957L58.7754 2.32812L57.5176 5.5957H60.0332ZM69.2344 9H65.3242V8.64453H66.623V1.15234H65.9941C65.2376 1.16146 64.7318 1.63086 64.4766 2.56055L64.2168 3.53125H63.834L63.9023 0.796875H70.7246L70.7793 3.53125H70.3965L70.1367 2.56055C69.8906 1.63086 69.3893 1.16146 68.6328 1.15234H67.9355V8.64453H68.8789C68.9245 8.64453 68.9701 8.64909 69.0156 8.6582C69.1615 8.68555 69.2344 8.79948 69.2344 9ZM75.1953 9H71.6953V8.64453H72.7891V1.15234H71.6953V0.796875H75.1953V1.15234H74.1016V8.64453H74.8398C74.8854 8.64453 74.931 8.64909 74.9766 8.6582C75.1224 8.68555 75.1953 8.79948 75.1953 9ZM80.541 0.660156C81.4889 0.660156 82.3275 0.929036 83.0566 1.4668C84.1048 2.25065 84.6289 3.39453 84.6289 4.89844C84.6289 6.17448 84.2005 7.2181 83.3438 8.0293C82.5508 8.76758 81.6029 9.13672 80.5 9.13672C79.5247 9.13672 78.6589 8.84049 77.9023 8.24805C76.8906 7.43685 76.3848 6.30208 76.3848 4.84375C76.3848 3.58594 76.8132 2.55599 77.6699 1.75391C78.472 1.02474 79.429 0.660156 80.541 0.660156ZM80.541 8.75391C80.7598 8.75391 80.9694 8.73112 81.1699 8.68555C82.4551 8.35742 83.0977 7.07682 83.0977 4.84375C83.0885 2.32812 82.2227 1.0612 80.5 1.04297C80.3724 1.04297 80.2402 1.05208 80.1035 1.07031C78.6361 1.26172 77.9023 2.53776 77.9023 4.89844C77.9023 5.0625 77.9069 5.22656 77.916 5.39062C78.0254 7.63281 78.9004 8.75391 80.541 8.75391ZM91.5469 1.15234V0.796875H94.3359V1.15234H93.2422V8.93164L92.5859 9.06836L87.2266 2.4375V8.64453H88.0332C88.0788 8.64453 88.1243 8.64909 88.1699 8.6582C88.3158 8.68555 88.3887 8.79948 88.3887 9H85.5859V8.64453H86.6797V1.15234H85.5859V0.796875H87.5684L92.6953 7.12695V1.15234H91.5469ZM101.377 1.15234H100.023V4.98047H101.186C101.277 4.98047 101.372 4.97591 101.473 4.9668C102.503 4.85742 103.018 4.21029 103.018 3.02539C103.018 2.7793 102.99 2.54688 102.936 2.32812C102.726 1.54427 102.206 1.15234 101.377 1.15234ZM101.404 9H97.6172V8.64453H98.7109V1.15234H97.6172V0.796875H101.773C102.357 0.796875 102.858 0.892578 103.277 1.08398C104.061 1.45768 104.453 2.09115 104.453 2.98438C104.453 3.39453 104.362 3.76367 104.18 4.0918C103.697 4.94857 102.712 5.37695 101.227 5.37695H100.023V8.64453H101.049C101.094 8.64453 101.14 8.64909 101.186 8.6582C101.331 8.68555 101.404 8.79948 101.404 9ZM109.662 0.660156C110.61 0.660156 111.449 0.929036 112.178 1.4668C113.226 2.25065 113.75 3.39453 113.75 4.89844C113.75 6.17448 113.322 7.2181 112.465 8.0293C111.672 8.76758 110.724 9.13672 109.621 9.13672C108.646 9.13672 107.78 8.84049 107.023 8.24805C106.012 7.43685 105.506 6.30208 105.506 4.84375C105.506 3.58594 105.934 2.55599 106.791 1.75391C107.593 1.02474 108.55 0.660156 109.662 0.660156ZM109.662 8.75391C109.881 8.75391 110.09 8.73112 110.291 8.68555C111.576 8.35742 112.219 7.07682 112.219 4.84375C112.21 2.32812 111.344 1.0612 109.621 1.04297C109.493 1.04297 109.361 1.05208 109.225 1.07031C107.757 1.26172 107.023 2.53776 107.023 4.89844C107.023 5.0625 107.028 5.22656 107.037 5.39062C107.146 7.63281 108.021 8.75391 109.662 8.75391ZM121.064 9H114.939V8.64453H116.033V1.15234H114.939V0.796875H118.508V1.15234H117.346V8.64453H119.137C119.264 8.64453 119.387 8.63086 119.506 8.60352C120.007 8.47591 120.363 8.01107 120.572 7.20898L120.832 6.22461H121.133L121.064 9ZM125.234 9H121.734V8.64453H122.828V1.15234H121.734V0.796875H125.234V1.15234H124.141V8.64453H124.879C124.924 8.64453 124.97 8.64909 125.016 8.6582C125.161 8.68555 125.234 8.79948 125.234 9ZM133.205 8.38477C132.367 8.87695 131.482 9.1276 130.553 9.13672C129.286 9.13672 128.26 8.71745 127.477 7.87891C126.729 7.06771 126.355 6.0651 126.355 4.87109C126.355 3.88672 126.624 3.01628 127.162 2.25977C127.937 1.19336 129.053 0.660156 130.512 0.660156C130.703 0.660156 130.895 0.669271 131.086 0.6875C131.943 0.778646 132.631 1.02474 133.15 1.42578C133.15 1.20703 133.16 1.04297 133.178 0.933594C133.223 0.796875 133.351 0.728516 133.561 0.728516L133.602 3.28516H133.246C132.809 1.80859 131.924 1.0612 130.594 1.04297C130.12 1.04297 129.691 1.16146 129.309 1.39844C128.361 1.98177 127.887 3.14388 127.887 4.88477C127.887 5.54102 127.955 6.12891 128.092 6.64844C128.456 8.05208 129.272 8.75391 130.539 8.75391C131.915 8.74479 132.831 7.97917 133.287 6.45703H133.643V9.06836C133.533 9.06836 133.451 9.05924 133.396 9.04102C133.269 8.98633 133.205 8.76758 133.205 8.38477ZM139.836 9H136.309V8.64453H137.416V5.69141L134.859 1.15234H134.135V0.796875H137.361V1.15234H136.322L138.469 5.08984L140.492 1.15234H139.398V0.796875H141.832C141.832 0.842448 141.827 0.888021 141.818 0.933594C141.791 1.07943 141.677 1.15234 141.477 1.15234C141.194 1.17057 140.952 1.29818 140.752 1.53516L138.729 5.56836V8.64453H139.467C139.64 8.66276 139.763 8.78125 139.836 9Z" fill="white"/>
</svg>
